<?xml version="1.0" encoding="UTF-8" standalone="no"?>
<!DOCTYPE svg PUBLIC "-//W3C//DTD SVG 1.1//EN" "http://www.w3.org/Graphics/SVG/1.1/DTD/svg11.dtd">
<svg version="1.1" xmlns="http://www.w3.org/2000/svg" xmlns:xlink="http://www.w3.org/1999/xlink" preserveAspectRatio="xMidYMid meet" viewBox="0 0 640 640" width="640" height="640"><defs><path d="M115.98 447.72L203.17 447.72L203.17 640L115.98 447.72ZM292.54 103.4L292.54 580.76L203.17 640L203.17 54.93L258.53 54.93L258.53 54.93L292.54 103.4ZM524.02 247.21L436.83 247.21L436.83 447.72L524.02 447.72L436.83 640L436.83 640L347.46 580.76L347.46 580.76L347.46 103.4L381.47 54.93L381.47 54.93L436.83 54.93L436.83 54.93L524.02 247.21ZM517.9 369.26L484.31 347.46L517.9 325.67L551.49 303.87L551.49 391.06L517.9 369.26ZM155.69 347.46L122.1 369.26L88.51 391.06L88.51 303.87L122.1 325.67L155.69 347.46ZM115.98 247.21L203.17 54.93L203.17 247.21L115.98 247.21ZM320 67.18L298.2 33.59L276.41 0L363.59 0L341.8 33.59L320 67.18Z" id="e3RYU9aq09"></path></defs><g><g><g><use xlink:href="#e3RYU9aq09" opacity="1" fill="#ffffff" fill-opacity="1"></use></g></g></g></svg>