<?xml version="1.0" encoding="UTF-8" standalone="no"?>
<!DOCTYPE svg PUBLIC "-//W3C//DTD SVG 1.1//EN" "http://www.w3.org/Graphics/SVG/1.1/DTD/svg11.dtd">
<svg version="1.1" xmlns="http://www.w3.org/2000/svg" xmlns:xlink="http://www.w3.org/1999/xlink" preserveAspectRatio="xMidYMid meet" viewBox="0 0 640 640" width="640" height="640"><defs><path d="M464.11 348.9L488.57 364.78L488.57 333.03L488.57 301.28L464.11 317.15L439.65 333.03L464.11 348.9Z" id="a15152v3M8"></path><path d="M468.57 260.02L405.08 260.02L405.08 406.04L468.57 406.04L405.08 546.06L340 502.92L340 502.92L340 155.3L364.76 120L405.08 120L405.08 120L468.57 260.02Z" id="a1TPRRh9zF"></path><path d="M171.43 406.04L234.92 406.04L234.92 546.06L234.92 546.06L171.43 406.04ZM275.24 120L300 155.3L300 502.92L234.92 546.06L234.92 120L234.92 120L275.24 120ZM171.43 260.02L234.92 120L234.92 260.02L234.92 260.02L171.43 260.02Z" id="e2rKucT01K"></path><path d="M175.89 348.9L151.43 364.78L151.43 333.03L151.43 301.28L175.89 317.15L200.35 333.03L175.89 348.9Z" id="fier77r26"></path><path d="M304.13 104.46L288.25 80L320 80L351.75 80L335.87 104.46L320 128.92L304.13 104.46Z" id="cwxSOqe3E"></path></defs><g><g><g><use xlink:href="#a15152v3M8" opacity="1" fill="#000000" fill-opacity="1"></use></g><g><use xlink:href="#a1TPRRh9zF" opacity="1" fill="#000000" fill-opacity="1"></use></g><g><use xlink:href="#e2rKucT01K" opacity="1" fill="#000000" fill-opacity="1"></use></g><g><use xlink:href="#fier77r26" opacity="1" fill="#000000" fill-opacity="1"></use></g><g><use xlink:href="#cwxSOqe3E" opacity="1" fill="#000000" fill-opacity="1"></use></g></g></g></svg>